<svg width="1800" height="1203" viewBox="0 0 1800 1203" fill="none" xmlns="http://www.w3.org/2000/svg">
  <path fill-rule="evenodd" clip-rule="evenodd"
        d="M8.71948 43.6808C0 60.7937 0 83.1958 0 128V409.037C0 467.322 0 496.465 12.1582 515.92C22.8064 532.959 39.4763 545.367 58.8541 550.678C80.98 556.742 108.897 548.379 164.731 531.653L454 445C494 436 521.206 445 538.319 453.719C553.372 461.389 565.611 473.628 573.281 488.681C582 505.794 582 528.196 582 573V1075C582 1119.8 582 1142.21 590.719 1159.32C598.389 1174.37 610.628 1186.61 625.681 1194.28C642.794 1203 665.196 1203 710 1203H1672C1716.8 1203 1739.21 1203 1756.32 1194.28C1771.37 1186.61 1783.61 1174.37 1791.28 1159.32C1800 1142.21 1800 1119.8 1800 1075V128C1800 83.1958 1800 60.7937 1791.28 43.6808C1783.61 28.6278 1771.37 16.3893 1756.32 8.71948C1739.21 0 1716.8 0 1672 0H128C83.1958 0 60.7937 0 43.6808 8.71948C28.6278 16.3893 16.3893 28.6278 8.71948 43.6808Z"
        fill="#F7F8F8"/>
  <path
    d="M9.61138 1158.54C5.57019 1150.55 3.53717 1141.29 2.51901 1128.73C1.50038 1116.17 1.5 1100.33 1.5 1079.17V708.521C1.5 674.65 1.50869 657.855 7.19131 643.655C12.216 631.1 20.3604 620.034 30.8543 611.504C42.7222 601.857 58.7558 596.855 91.0955 586.786L155.403 566.762L155.407 566.761L374.114 500.719C395.046 494.398 405.48 491.248 419.396 488.85C428.255 487.324 447.835 485.579 456.823 485.516C470.945 485.416 474.126 485.786 480.481 486.524L480.498 486.526C490.385 487.675 498.083 489.678 504.868 493.163C518.869 500.355 530.254 511.83 537.389 525.946C541.43 533.94 543.463 543.193 544.481 555.755C545.5 568.322 545.5 584.158 545.5 605.313V1079.17C545.5 1098.21 545.5 1112.46 544.709 1123.82C543.918 1135.17 542.339 1143.61 539.2 1151.02C531.147 1170.02 516.02 1185.15 497.017 1193.2C489.609 1196.34 481.174 1197.92 469.817 1198.71C458.455 1199.5 444.207 1199.5 425.175 1199.5H120.862C99.8763 1199.5 84.1669 1199.5 71.7001 1198.47C59.2393 1197.45 50.0622 1195.4 42.1322 1191.32C28.1307 1184.13 16.7463 1172.66 9.61138 1158.54Z"
    fill="#F7F8F8" stroke="black"/>
</svg>
